<svg id="Layer" enable-background="new 0 0 64 64" height="512" viewBox="0 0 64 64" width="512" xmlns="http://www.w3.org/2000/svg"><g fill="#cce4ff"><path d="m37 26v8h17v-16h-17z"/><path d="m23 46v4h9 9v-4c0-2.21-1.79-4-4-4h-10c-2.21 0-4 1.79-4 4z"/><path d="m27 26v-8h-17v16h17z"/></g><path d="m38.923 8h-14v8h-17v20h17v4.35c-2.327.826-4 3.043-4 5.65v6h9v4h4v-4h9v-6c0-2.607-1.673-4.824-4-5.65v-4.35h17v-20h-17zm-10 4h6v28h-6zm-17 20v-12h13v4h-9v4h9v4zm27 16h-14v-2c0-1.103.897-2 2-2h10c1.103 0 2 .897 2 2zm13-28v12h-13v-4h9v-4h-9v-4z" fill="#007aff"/></svg>